<svg width="960" height="320" viewBox="0 0 960 320" fill="none" xmlns="http://www.w3.org/2000/svg">
  <defs>
    <linearGradient id="bg" x1="0" y1="0" x2="960" y2="320" gradientUnits="userSpaceOnUse">
      <stop stop-color="#EFFFF6"/>
      <stop offset="1" stop-color="#D9FBE8"/>
    </linearGradient>
  </defs>
  <rect width="960" height="320" rx="28" fill="url(#bg)"/>
  <rect x="36" y="28" width="888" height="264" rx="22" fill="#FFFFFF" stroke="#CDEEDB" stroke-width="2"/>

  <rect x="130" y="88" width="340" height="148" rx="18" fill="#16A34A"/>
  <rect x="156" y="110" width="288" height="34" rx="10" fill="#22C55E"/>
  <rect x="170" y="118" width="170" height="18" rx="6" fill="#D1FAE5"/>
  <circle cx="396" cy="127" r="11" fill="#064E3B"/>
  <rect x="156" y="156" width="196" height="56" rx="10" fill="#15803D"/>
  <rect x="366" y="156" width="78" height="56" rx="10" fill="#0F766E"/>
  <rect x="180" y="174" width="66" height="20" rx="6" fill="#A7F3D0"/>
  <rect x="254" y="174" width="72" height="20" rx="6" fill="#86EFAC"/>

  <circle cx="628" cy="164" r="58" fill="#22C55E"/>
  <path d="M606 164C606 148 618 136 634 136H640C656 136 668 148 668 164V204H606V164Z" fill="#DCFCE7"/>
  <path d="M618 136C618 124 628 114 641 114C654 114 664 124 664 136" stroke="#DCFCE7" stroke-width="8" stroke-linecap="round"/>
  <text x="633" y="181" font-family="Arial" font-size="30" font-weight="700" fill="#15803D">S/</text>

  <rect x="724" y="126" width="140" height="18" rx="9" fill="#34D399"/>
  <rect x="724" y="154" width="110" height="14" rx="7" fill="#6EE7B7"/>
  <rect x="724" y="176" width="128" height="14" rx="7" fill="#A7F3D0"/>
</svg>
