<svg width="960" height="320" viewBox="0 0 960 320" fill="none" xmlns="http://www.w3.org/2000/svg">
  <defs>
    <linearGradient id="bg" x1="0" y1="0" x2="960" y2="320" gradientUnits="userSpaceOnUse">
      <stop stop-color="#FFF8F1"/>
      <stop offset="1" stop-color="#FFEBD8"/>
    </linearGradient>
  </defs>
  <rect width="960" height="320" rx="28" fill="url(#bg)"/>
  <rect x="36" y="28" width="888" height="264" rx="22" fill="#FFFFFF" stroke="#FFD9B3" stroke-width="2"/>

  <path d="M126 98H192L232 214H500" stroke="#EA580C" stroke-width="12" stroke-linecap="round" stroke-linejoin="round"/>
  <rect x="250" y="126" width="238" height="62" rx="12" fill="#FB923C"/>
  <rect x="278" y="144" width="52" height="26" rx="8" fill="#FFEDD5"/>
  <rect x="340" y="144" width="52" height="26" rx="8" fill="#FFEDD5"/>
  <rect x="402" y="144" width="52" height="26" rx="8" fill="#FFEDD5"/>
  <circle cx="258" cy="232" r="16" fill="#F97316"/>
  <circle cx="474" cy="232" r="16" fill="#F97316"/>

  <rect x="560" y="92" width="306" height="148" rx="18" fill="#FFF7ED" stroke="#FDBA74" stroke-width="2"/>
  <rect x="586" y="116" width="254" height="22" rx="11" fill="#FB923C"/>
  <rect x="586" y="150" width="180" height="16" rx="8" fill="#FDBA74"/>
  <rect x="586" y="174" width="220" height="16" rx="8" fill="#FED7AA"/>
  <rect x="586" y="198" width="142" height="16" rx="8" fill="#FFEDD5"/>

  <rect x="96" y="72" width="86" height="20" rx="10" fill="#DC2626"/>
  <text x="114" y="86" font-family="Arial" font-size="11" font-weight="700" fill="white">OC-321</text>
</svg>
