<svg width="960" height="320" viewBox="0 0 960 320" fill="none" xmlns="http://www.w3.org/2000/svg">
  <defs>
    <linearGradient id="bg" x1="0" y1="0" x2="960" y2="320" gradientUnits="userSpaceOnUse">
      <stop stop-color="#DCFCE7"/>
      <stop offset="1" stop-color="#86EFAC"/>
    </linearGradient>
  </defs>
  <rect width="960" height="320" rx="28" fill="url(#bg)"/>
  <rect x="38" y="30" width="884" height="260" rx="22" fill="#FFFFFF" stroke="#DDE5EE" stroke-width="2"/>
  <rect x="248" y="74" width="272" height="172" rx="24" fill="#FFFFFF" stroke="#E2E8F0" stroke-width="2"/>
  <rect x="304" y="122" width="150" height="108" rx="12" fill="white" stroke="#15803D" stroke-width="3"/><rect x="328" y="146" width="102" height="10" rx="5" fill="#86EFAC"/><rect x="328" y="166" width="76" height="10" rx="5" fill="#BBF7D0"/><path d="M328 194L344 210L380 176" stroke="#15803D" stroke-width="7" stroke-linecap="round" stroke-linejoin="round"/>
  <rect x="548" y="96" width="274" height="22" rx="11" fill="#15803D"/>
  <rect x="548" y="132" width="188" height="16" rx="8" fill="#94A3B8"/>
  <rect x="548" y="156" width="230" height="16" rx="8" fill="#CBD5E1"/>
  <rect x="548" y="180" width="140" height="16" rx="8" fill="#E2E8F0"/>
  <rect x="548" y="210" width="102" height="30" rx="12" fill="#15803D"/>
  <text x="576" y="230" font-family="Arial" font-size="14" font-weight="700" fill="white">ORD</text>
</svg>
