<svg width="960" height="320" viewBox="0 0 960 320" fill="none" xmlns="http://www.w3.org/2000/svg">
  <defs>
    <linearGradient id="bg" x1="0" y1="0" x2="960" y2="320" gradientUnits="userSpaceOnUse">
      <stop stop-color="#FFF1F2"/>
      <stop offset="1" stop-color="#FECDD3"/>
    </linearGradient>
  </defs>
  <rect width="960" height="320" rx="28" fill="url(#bg)"/>
  <rect x="38" y="30" width="884" height="260" rx="22" fill="#FFFFFF" stroke="#DDE5EE" stroke-width="2"/>
  <rect x="248" y="74" width="272" height="172" rx="24" fill="#FFFFFF" stroke="#E2E8F0" stroke-width="2"/>
  <rect x="300" y="136" width="176" height="72" rx="14" fill="#BE123C"/><rect x="326" y="152" width="56" height="30" rx="8" fill="#FECACA"/><rect x="390" y="152" width="56" height="30" rx="8" fill="#FECDD3"/><circle cx="330" cy="214" r="10" fill="#FB7185"/><circle cx="446" cy="214" r="10" fill="#FB7185"/>
  <rect x="548" y="96" width="274" height="22" rx="11" fill="#BE123C"/>
  <rect x="548" y="132" width="188" height="16" rx="8" fill="#94A3B8"/>
  <rect x="548" y="156" width="230" height="16" rx="8" fill="#CBD5E1"/>
  <rect x="548" y="180" width="140" height="16" rx="8" fill="#E2E8F0"/>
  <rect x="548" y="210" width="102" height="30" rx="12" fill="#BE123C"/>
  <text x="576" y="230" font-family="Arial" font-size="14" font-weight="700" fill="white">SUP</text>
</svg>
